Coordinates
version=1
nRows=54
nColumns=12
inDegrees=yes

Units are S.I. units (second, meters, Newtons, ...)
Angles are in degrees

endheader
time	SC_y	SC_z	SC_x	AC_y	AC_z	AC_x	GH_y	GH_z	GH_yy	EL_x	PS_y
       0.0              -38.51          2.722          2.308          58.38         -4.519          14.14         -151.3          67.46         -140.8          66.43          156.2
  0.001638               -38.5          2.722           2.32          58.37          -4.52          14.14         -151.3          67.46         -140.7          66.43          156.2
  0.003275               -38.5          2.722          2.332          58.37          -4.52          14.13         -151.2          67.46         -140.7          66.44          156.2
  0.004913               -38.5          2.722          2.345          58.37         -4.521          14.13         -151.2          67.46         -140.6          66.45          156.2
   0.00655               -38.5          2.722          2.358          58.37         -4.521          14.12         -151.2          67.47         -140.6          66.46          156.2
  0.008188               -38.5          2.722          2.373          58.36         -4.522          14.12         -151.2          67.47         -140.5          66.46          156.2
  0.009825              -38.49          2.722          2.389          58.36         -4.523          14.11         -151.1          67.47         -140.5          66.47          156.2
   0.01146              -38.49          2.722          2.405          58.36         -4.524          14.11         -151.1          67.47         -140.4          66.48          156.2
    0.0131              -38.49          2.722          2.423          58.36         -4.525           14.1         -151.0          67.47         -140.3          66.49          156.2
   0.01474              -38.48          2.722          2.442          58.35         -4.525          14.09         -151.0          67.47         -140.2          66.51          156.2
   0.01638              -38.48          2.721          2.463          58.35         -4.526          14.08         -151.0          67.47         -140.2          66.52          156.2
   0.01801              -38.48          2.721          2.485          58.35         -4.528          14.07         -150.9          67.48         -140.1          66.53          156.2
   0.01965              -38.47          2.721          2.509          58.34         -4.529          14.06         -150.9          67.48         -140.0          66.55          156.2
   0.02129              -38.47          2.721          2.535          58.34          -4.53          14.05         -150.8          67.48         -139.9          66.56          156.2
   0.02293              -38.46          2.721          2.563          58.33         -4.531          14.04         -150.7          67.48         -139.8          66.58          156.2
   0.02456              -38.46          2.721          2.593          58.33         -4.533          14.03         -150.7          67.48         -139.7           66.6          156.2
    0.0262              -38.45          2.721          2.626          58.32         -4.534          14.02         -150.6          67.49         -139.5          66.62          156.1
   0.02784              -38.45           2.72          2.662          58.31         -4.536          14.01         -150.5          67.49         -139.4          66.64          156.1
   0.02948              -38.44           2.72          2.701          58.31         -4.538          13.99         -150.4          67.49         -139.2          66.66          156.1
   0.03111              -38.43           2.72          2.743           58.3          -4.54          13.97         -150.4           67.5         -139.1          66.69          156.1
   0.03275              -38.43           2.72          2.791          58.29         -4.542          13.95         -150.3           67.5         -138.9          66.71          156.1
   0.03439              -38.42          2.719          2.842          58.28         -4.545          13.93         -150.1           67.5         -138.7          66.75          156.1
   0.03603              -38.41          2.719          2.899          58.27         -4.548          13.91         -150.0          67.51         -138.5          66.78          156.1
   0.03766               -38.4          2.719          2.963          58.26         -4.551          13.89         -149.9          67.51         -138.2          66.82          156.1
    0.0393              -38.39          2.718          3.033          58.25         -4.554          13.86         -149.7          67.52         -137.9          66.86          156.1
   0.04094              -38.37          2.718          3.112          58.24         -4.558          13.83         -149.6          67.53         -137.6          66.91          156.1
   0.04258              -38.36          2.717            3.2          58.22         -4.562           13.8         -149.4          67.53         -137.3          66.96          156.1
   0.04421              -38.34          2.717          3.299           58.2         -4.567          13.76         -149.2          67.54         -136.9          67.02          156.0
   0.04585              -38.32          2.716          3.411          58.18         -4.573          13.71         -148.9          67.55         -136.5          67.09          156.0
   0.04749               -38.3          2.715          3.538          58.16         -4.579          13.66         -148.6          67.56         -136.0          67.16          156.0
   0.04913              -38.28          2.714          3.683          58.13         -4.586          13.61         -148.3          67.57         -135.4          67.25          156.0
   0.05076              -38.25          2.713          3.849          58.11         -4.594          13.54         -148.0          67.59         -134.8          67.35          155.9
    0.0524              -38.22          2.712          4.041          58.07         -4.603          13.47         -147.6           67.6         -134.0          67.46          155.9
   0.05404              -38.18          2.711          4.264          58.03         -4.614          13.38         -147.1          67.62         -133.1           67.6          155.9
   0.05568              -38.14           2.71          4.525          57.99         -4.627          13.28         -146.5          67.64         -132.1          67.75          155.8
   0.05731              -38.09          2.708          4.833          57.93         -4.642          13.16         -145.8          67.67         -130.9          67.94          155.8
   0.05895              -38.03          2.706          5.199          57.87          -4.66          13.01         -145.1           67.7         -129.5          68.16          155.7
   0.06059              -37.96          2.703          5.638          57.79         -4.681          12.84         -144.1          67.73         -127.8          68.42          155.6
   0.06223              -37.87            2.7          6.168           57.7         -4.707          12.64         -143.0          67.77         -125.7          68.74          155.5
   0.06386              -37.76          2.696          6.816          57.58         -4.738          12.38         -141.6          67.83         -123.2          69.13          155.4
    0.0655              -37.63          2.692          7.616          57.44         -4.777          12.07         -139.8          67.89         -120.1          69.61          155.3
   0.06714              -37.46          2.686          8.614          57.27         -4.826          11.68         -137.7          67.97         -116.2          70.21          155.1
   0.06878              -37.26          2.679           9.87          57.05         -4.887          11.19         -135.0          68.08         -111.3          70.96          154.9
   0.07041              -36.99          2.669          11.47          56.77         -4.964          10.57         -131.5          68.21         -105.1          71.92          154.6
   0.07205              -36.65          2.658          13.51          56.41         -5.064          9.768         -127.1          68.37          -97.1          73.14          154.3
   0.07369              -36.22          2.642          16.14          55.95         -5.191          8.744         -121.5          68.58         -86.88          74.72          153.8
   0.07533              -35.67          2.623          19.49          55.36         -5.354          7.435         -114.2          68.86         -73.82          76.72          153.2
   0.07696              -34.97          2.599           23.7          54.62         -5.559           5.79         -105.2           69.2         -57.39          79.25          152.5
    0.0786              -34.12          2.569          28.84          53.72         -5.809          3.784         -94.08          69.62         -37.38          82.33          151.6
   0.08024              -33.13          2.535          34.79          52.67         -6.098           1.46         -81.24           70.1         -14.18           85.9          150.6
   0.08188              -32.07          2.497          41.23          51.54         -6.411         -1.057         -67.34          70.62          10.94          89.76          149.5
   0.08351               -31.0           2.46          47.68          50.41         -6.725         -3.573         -53.44          71.15          36.06          93.63          148.3
   0.08515              -30.02          2.426          53.63          49.36         -7.014         -5.898          -40.6          71.63          59.26           97.2          147.3
   0.08679              -29.17          2.396          58.77          48.46         -7.264         -7.903         -29.52          72.05          79.27          100.3          146.4
